<svg version="1.1" id="Layer_1" xmlns="http://www.w3.org/2000/svg" xmlns:xlink="http://www.w3.org/1999/xlink" x="0px" y="0px"
	 width="218.156px" height="217.969px" viewBox="0 0 218.156 217.969" enable-background="new 0 0 218.156 217.969"
	 xml:space="preserve">
<path d="M218.147,192.169c0,5.981-1.711,11.415-5.424,16.126c-4.223,5.357-9.765,8.533-16.517,9.53
	c-1.113,0.165-2.263,0.117-3.395,0.118c-12.131,0.008-24.262,0.006-36.394,0.006c-15.815,0-31.631,0-47.445,0v-0.001
	c-27.947,0-55.893-0.015-83.839,0.021c-2.997,0.004-5.87-0.463-8.654-1.503c-5.505-2.059-9.776-5.627-12.856-10.629
	c-1.81-2.938-2.913-6.132-3.433-9.533c-0.085-0.558-0.129-1.126-0.147-1.691c-0.031-0.963-0.036-1.927-0.036-2.891
	C0.007,136.565,0.009,81.411,0,26.255C0,23.809,0.031,21.371,0.732,19.009C3.742,8.862,10.398,2.615,20.76,0.351
	c1.171-0.256,2.353-0.345,3.546-0.335c0.397,0.003,0.794-0.004,1.191-0.004c55.666,0,111.332,0.003,166.998-0.011
	c2.225-0.001,4.41,0.176,6.565,0.735c9.573,2.483,17.037,10.333,18.732,20.545c0.249,1.503,0.363,3.033,0.363,4.57
	C218.146,81.291,218.148,136.729,218.147,192.169 M151.169,58.871c-0.08,3.813,2.933,7.409,6.795,7.936
	c0.901,0.123,1.796,0.203,2.702,0.203c7.476-0.002,14.951-0.001,22.427-0.002c0.452,0,0.907,0.013,1.358-0.019
	c4.728-0.33,7.343-3.336,7.979-7.029c0.123-0.719,0.119-1.466,0.12-2.2c0.008-7.702,0.005-15.404,0.005-23.106
	c0-0.396,0.007-0.793-0.015-1.189c-0.225-4.341-3.195-7.213-6.756-7.841c-0.844-0.149-1.682-0.205-2.532-0.205
	c-7.646,0.001-15.291,0.001-22.936,0.002c-0.397,0-0.795-0.015-1.189,0.015c-4.366,0.335-6.889,3.031-7.718,6.102
	c-0.225,0.833-0.241,1.679-0.242,2.528c-0.004,4.021-0.002,8.042-0.002,12.063h-0.001c0,3.737,0,7.475,0,11.213
	C151.164,57.852,151.181,58.361,151.169,58.871 M108.892,150.652c23.377,0.063,41.655-18.541,41.766-41.513
	c0.057-11.451-4.051-21.4-12.16-29.545c-8.111-8.147-18.069-12.252-29.504-12.259c-11.378-0.006-21.311,4.09-29.37,12.177
	c-8.089,8.117-12.175,18.006-12.182,31.377C67.168,130.861,84.879,150.587,108.892,150.652 M190.561,92.419
	c-4.818-0.007-9.635-0.003-14.453-0.002c-1.838,0.001-2.059-0.164-1.546,1.993c1.066,4.48,1.551,9.044,1.718,13.635
	c0.125,3.4-0.205,6.796-0.674,10.162c-0.698,5.009-1.929,9.89-3.73,14.627c-3.205,8.432-7.935,15.905-14.133,22.434
	c-6.363,6.701-13.803,11.885-22.311,15.525c-6.729,2.878-13.741,4.681-21.025,5.179c-5.081,0.348-10.181,0.277-15.259-0.502
	c-9.965-1.53-19.141-5.044-27.514-10.642c-4.54-3.036-8.655-6.569-12.322-10.636c-2.666-2.956-5.07-6.095-7.191-9.459
	c-2.763-4.382-4.981-9.025-6.679-13.917c-1.566-4.514-2.593-9.151-3.183-13.891c-0.442-3.554-0.427-7.122-0.378-10.692
	c0.027-1.989,0.287-3.954,0.539-5.92c0.275-2.136,0.704-4.245,1.162-6.35c0.32-1.469,0.247-1.54-1.281-1.543
	c-4.931-0.01-9.862-0.004-14.793-0.003c-0.227,0-0.454-0.004-0.68,0.012c-0.872,0.062-1.124,0.281-1.185,1.11
	c-0.042,0.565-0.029,1.133-0.029,1.7c-0.001,29.245-0.001,58.49-0.001,87.735c0,0.567,0.016,1.133,0.009,1.7
	c-0.043,3.418,2.519,6.789,6.143,7.598c1.069,0.239,2.131,0.268,3.206,0.268c24.654,0.001,49.308,0.001,73.963,0.001
	c24.483,0,48.968,0,73.453,0c0.68,0,1.36,0.021,2.04-0.012c4.3-0.204,7.174-2.989,7.903-6.489c0.211-1.015,0.223-2.024,0.224-3.043
	c0.002-17.626,0.001-35.252,0.001-52.879c0-11.902,0.002-23.805-0.002-35.707C192.552,92.434,192.538,92.423,190.561,92.419"/>
</svg>
