<svg version="1.1" id="Layer_1" xmlns="http://www.w3.org/2000/svg" xmlns:xlink="http://www.w3.org/1999/xlink" x="0px" y="0px"
	 width="14.303px" height="15.493px" viewBox="0 0 14.303 15.493" enable-background="new 0 0 14.303 15.493" xml:space="preserve">
<g>
	<defs>
		<rect id="SVGID_1_" width="14.303" height="15.493"/>
	</defs>
	<clipPath id="SVGID_2_">
		<use xlink:href="#SVGID_1_"  overflow="visible"/>
	</clipPath>
	<path clip-path="url(#SVGID_2_)" d="M11.991,15.337c-0.651,0.134-4.999-0.046-8.54-4.041C-0.303,7.059,0.083,2.281,0.23,1.987
		c0.291-0.579,0.911-1.195,1.702-1.692c0.113-0.07,0.233-0.119,0.357-0.144c0.519-0.106,1.006,0.208,1.328,0.416l0.166,0.104
		c0.439,0.253,0.984,3.117,0.962,3.47C4.721,4.552,4.271,4.956,3.192,5.913c0.312,1.065,1.267,2.526,2.029,3.384
		c0.701,0.791,2.211,2.146,3.287,2.612c0.929-0.823,1.401-1.238,1.781-1.314c0.057-0.013,0.111-0.017,0.163-0.014
		c0.353,0.021,3.132,0.905,3.329,1.371l0.083,0.179c0.204,0.417,0.543,1.116,0.068,1.704c-0.588,0.727-1.275,1.269-1.883,1.486
		L11.991,15.337z"/>
	<path clip-path="url(#SVGID_2_)" d="M2.315,0.278C2.877,0.163,3.42,0.61,3.718,0.783c0.355,0.204,0.92,2.985,0.898,3.35
		C4.595,4.498,4.11,4.927,3.046,5.87c0.299,1.116,1.305,2.643,2.078,3.512c0.771,0.871,2.336,2.247,3.409,2.679
		c0.942-0.836,1.431-1.268,1.782-1.34c0.045-0.01,0.089-0.013,0.13-0.01c0.365,0.021,3.059,0.916,3.218,1.292
		c0.16,0.376,0.664,1.14,0.171,1.75c-0.495,0.611-1.173,1.211-1.827,1.446c-0.012,0.004-0.024,0.008-0.041,0.011
		c-0.59,0.121-4.915-0.05-8.417-4c-3.602-4.062-3.385-8.8-3.203-9.165c0.313-0.622,0.99-1.222,1.655-1.64
		C2.106,0.339,2.21,0.299,2.315,0.278 M2.264,0.024L2.264,0.024C2.125,0.053,1.991,0.107,1.864,0.185
		C1.48,0.426,0.542,1.078,0.116,1.929c-0.264,0.53-0.384,5.366,3.24,9.453c3.581,4.041,7.998,4.218,8.662,4.082l0.018-0.004
		l0.06-0.017c0.895-0.321,1.653-1.175,1.939-1.527c0.526-0.651,0.15-1.426-0.052-1.841c-0.031-0.064-0.06-0.123-0.081-0.173
		c-0.241-0.567-3.196-1.437-3.439-1.45c-0.064-0.004-0.131,0.001-0.197,0.015c-0.404,0.082-0.847,0.465-1.78,1.29
		c-1.051-0.484-2.489-1.78-3.166-2.546C4.584,8.385,3.669,6.994,3.34,5.955c1.063-0.942,1.506-1.351,1.534-1.806
		c0.015-0.245-0.492-3.282-1.026-3.59C3.801,0.532,3.748,0.497,3.688,0.458C3.349,0.239,2.834-0.093,2.264,0.024"/>
</g>
</svg>
